<svg width="98" height="33" viewBox="0 0 98 33" fill="none" xmlns="http://www.w3.org/2000/svg">
<rect width="98" height="33" fill="black"/>
<g clip-path="url(#clip0_71_1714)">
<path d="M59.3941 27.5579H55.0455V18.3177C55.0455 15.4387 49.25 15.4468 49.25 19.0415V27.5579H44.9015V17.9558C44.9015 15.6156 39.4677 15.9132 39.4677 17.9558V27.5579H35.1191V12.7045L38.9051 12.6803C39.1623 15.0205 40.4484 12.7286 41.9033 12.423C44.8532 11.8118 46.485 12.7286 48.6552 14.4898C50.922 11.5303 56.002 11.3775 58.0919 14.538C58.534 15.2055 59.386 17.2803 59.386 17.9558V27.5579H59.3941Z" fill="white"/>
<path d="M4.34859 6.90625V18.1409L9.95915 12.3426H15.208L9.41257 18.6797L15.9395 27.566H10.6906L6.31791 21.7758C3.36795 22.58 4.54954 25.2097 4.35663 27.566H0V6.90625H4.34859Z" fill="#12B981"/>
<path d="M31.5098 27.558H27.5229V26.1104C23.6726 30.0268 15.6426 27.566 17.5476 21.3817C17.9415 20.095 20.7468 18.5027 21.9123 18.5027H27.1612C27.3541 16.8541 25.8027 15.8328 24.3478 15.6719C22.7965 15.495 20.0153 17.208 19.5491 16.9024L18.1344 14.3852C20.2082 11.9968 26.1805 11.6349 28.7366 13.1226C29.6449 13.6534 31.5098 15.881 31.5098 16.8702V27.558ZM27.1612 21.0359C25.7465 21.0761 22.8528 20.7384 21.8239 21.8562C19.0347 24.888 28.7527 26.6573 27.1612 21.0359Z" fill="#12B981"/>
<path d="M62.2949 12.7051H66.6435C67.0615 14.8201 65.7995 21.696 67.0936 23.1275C68.645 24.8404 72.4309 23.2963 72.4309 21.5834V12.7051H76.7795V27.5586H72.7926L72.6158 25.7491C70.2606 28.2019 66.2014 28.9579 63.7257 26.304C63.2997 25.8456 62.2949 24.2292 62.2949 23.7547V12.7051Z" fill="white"/>
<path d="M93.441 23.0305C93.7946 24.2851 96.1096 23.9312 97.0822 23.7463L97.9985 26.8505C89.0441 30.7508 88.5619 23.4809 89.0441 16.5568L86.9141 15.7606V12.3428H89.1004V8.35397L92.8622 8.33789C93.8027 9.60048 93.1596 10.9596 93.0873 12.3428L96.8411 12.3991C97.886 12.7449 97.2992 15.0771 97.4359 15.9778H93.449V23.0386L93.441 23.0305Z" fill="white"/>
<path d="M84.7548 12.7051H80.4062V27.5586H84.7548V12.7051Z" fill="white"/>
<path d="M80.5081 5.92521C82.3971 3.57696 86.6733 6.07801 84.7683 9.28675C82.8633 12.4955 78.1691 8.8364 80.5081 5.92521Z" fill="white"/>
</g>
<defs>
<clipPath id="clip0_71_1714">
<rect width="98" height="23" fill="white" transform="translate(0 5)"/>
</clipPath>
</defs>
</svg>
